<svg id="Layer_1" xmlns="http://www.w3.org/2000/svg" viewBox="0 0 283.5 283.5"><style>.st0{fill:#0099A0;} .st1{fill:#CB946B;}</style><path class="st0" d="M172.6 81.5c-.2-.8-.3-1.7-.1-2.6l2.2-13.2h-65.9l2.2 13.2c.1.9.1 1.8-.1 2.4l-11.8 38.8c-1.5 5.5 0 11.4 3.9 15.6 5.2 5.6 14 13.4 26.6 18.3 1.8.7 4.8 2.3 6.4 5v46.2h-20.3v11.5h52.2v-11.5h-20.3V159c1.6-2.7 4.6-4.3 6.4-5 12.6-4.9 21.4-12.7 26.6-18.3 3.9-4.2 5.3-10.1 3.8-15.8l-11.8-38.4zm-.5 46.4c-4.3 4.7-11.7 11.2-22.3 15.3-3.1 1.2-5.7 2.8-7.9 4.7-2.2-1.9-4.9-3.5-8-4.7-10.6-4.1-17.9-10.6-22.3-15.3-1.2-1.3-1.7-3.1-1.3-4.6l11.8-38.8c.6-2.4.8-4.8.4-7.2h38.6c-.4 2.4-.2 4.8.4 7.4l11.7 38.4c.5 1.7.1 3.5-1.1 4.8z"/><path class="st1" d="M141.8 14.4c-70 0-126.9 56.9-126.9 126.9s56.9 126.9 126.9 126.9 126.9-56.9 126.9-126.9S211.8 14.4 141.8 14.4zm5.9 237.5v-6.4c0-3.2-2.6-5.9-5.9-5.9-3.2 0-5.9 2.6-5.9 5.9v6.4c-56.7-3-102.1-48.5-104.8-105.3H37c3.2 0 5.9-2.6 5.9-5.9 0-3.2-2.6-5.9-5.9-5.9h-5.8C34.5 78.6 79.6 33.6 135.9 30.6v5.3c0 3.2 2.6 5.9 5.9 5.9 3.2 0 5.9-2.6 5.9-5.9v-5.3c56.3 2.9 101.5 47.9 104.7 104.2h-5.8c-3.2 0-5.9 2.6-5.9 5.9 0 3.2 2.6 5.9 5.9 5.9h5.9c-2.7 56.7-48.1 102.3-104.8 105.3z"/><circle class="st1" cx="141.8" cy="110.4" r="4.1"/><circle class="st1" cx="158.9" cy="110.4" r="4.1"/><circle class="st1" cx="141.8" cy="128.3" r="4.1"/><circle class="st1" cx="158.9" cy="128.3" r="4.1"/><circle class="st1" cx="124.7" cy="110.4" r="4.1"/><circle class="st1" cx="124.7" cy="128.3" r="4.1"/></svg>